<svg width="131" height="150" viewBox="0 0 131 150" fill="none" xmlns="http://www.w3.org/2000/svg">
<path d="M130.473 134.685C130.422 142.658 123.917 149.08 115.944 149.028C107.971 148.977 101.549 142.472 101.601 134.499C101.653 126.526 108.158 120.104 116.13 120.156C124.103 120.207 130.525 126.712 130.473 134.685Z" fill="#5CF895"></path>
<path d="M28.9655 14.6228C28.914 22.5957 22.4089 29.0172 14.436 28.9657C6.46314 28.9141 0.0416379 22.409 0.0931865 14.4362C0.144735 6.46329 6.64981 0.0417884 14.6227 0.0933369C22.5956 0.144885 29.0171 6.64996 28.9655 14.6228Z" fill="#5CF895"></path>
<path d="M77.0313 116.919C69.8532 116.919 63.5197 115.071 58.0306 111.377C52.5415 107.682 48.2663 102.721 45.2051 96.493C42.1439 90.1594 40.6133 83.0341 40.6133 75.1172C40.6133 66.8836 42.4078 59.5472 45.9968 53.1081C49.5859 46.5634 54.6527 41.391 61.1974 37.5908C67.8476 33.7907 75.659 31.8906 84.6316 31.8906C93.7097 31.8906 101.415 33.7907 107.749 37.5908C114.188 41.2854 119.097 46.405 122.475 52.9497C125.958 59.3888 127.7 66.6197 127.7 74.6422V115.019H103.632V102.035H102.999C101.521 104.885 99.621 107.471 97.2987 109.793C94.9764 112.01 92.1263 113.752 88.7484 115.019C85.476 116.285 81.5703 116.919 77.0313 116.919ZM84.3149 95.7013C88.0094 95.7013 91.229 94.804 93.9736 93.0095C96.8237 91.1094 98.9876 88.5232 100.465 85.2509C101.943 81.9785 102.682 78.3368 102.682 74.3255C102.682 70.4198 101.943 66.8836 100.465 63.7168C98.9876 60.55 96.8237 58.0693 93.9736 56.2748C91.229 54.3748 88.0094 53.4247 84.3149 53.4247C80.5147 53.4247 77.1896 54.3748 74.3395 56.2748C71.4894 58.0693 69.3255 60.55 67.8476 63.7168C66.3698 66.8836 65.6308 70.4198 65.6308 74.3255C65.6308 78.3368 66.3698 81.9785 67.8476 85.2509C69.3255 88.5232 71.4894 91.1094 74.3395 93.0095C77.1896 94.804 80.5147 95.7013 84.3149 95.7013Z" fill="white"></path>
<path d="M1.7373 115.025V33.7969H26.4382V115.025H1.7373Z" fill="white"></path>
</svg>