<svg width="446" height="150" viewBox="0 0 446 150" fill="none" xmlns="http://www.w3.org/2000/svg">
<path d="M445.908 135.256C445.856 143.229 439.351 149.65 431.378 149.598C423.406 149.547 416.984 143.042 417.036 135.069C417.087 127.096 423.592 120.675 431.565 120.726C439.538 120.778 445.959 127.283 445.908 135.256Z" fill="#5CF895"></path>
<path d="M344.401 15.1931C344.35 23.166 337.844 29.5875 329.872 29.536C321.899 29.4844 315.477 22.9793 315.529 15.0065C315.58 7.0336 322.085 0.612101 330.058 0.663649C338.031 0.715198 344.453 7.22027 344.401 15.1931Z" fill="#5CF895"></path>
<path d="M392.467 117.489C385.289 117.489 378.955 115.642 373.466 111.947C367.977 108.253 363.702 103.291 360.641 97.0633C357.579 90.7297 356.049 83.6045 356.049 75.6875C356.049 67.4539 357.843 60.1175 361.432 53.6784C365.021 47.1337 370.088 41.9613 376.633 38.1611C383.283 34.361 391.095 32.4609 400.067 32.4609C409.145 32.4609 416.851 34.361 423.185 38.1611C429.624 41.8557 434.532 46.9754 437.91 53.52C441.394 59.9592 443.135 67.19 443.135 75.2125V115.589H419.068V102.605H418.434C416.957 105.455 415.057 108.041 412.734 110.364C410.412 112.58 407.562 114.322 404.184 115.589C400.912 116.856 397.006 117.489 392.467 117.489ZM399.75 96.2716C403.445 96.2716 406.665 95.3743 409.409 93.5798C412.259 91.6797 414.423 89.0935 415.901 85.8212C417.379 82.5489 418.118 78.9071 418.118 74.8958C418.118 70.9901 417.379 67.4539 415.901 64.2871C414.423 61.1203 412.259 58.6397 409.409 56.8451C406.665 54.9451 403.445 53.995 399.75 53.995C395.95 53.995 392.625 54.9451 389.775 56.8451C386.925 58.6397 384.761 61.1203 383.283 64.2871C381.805 67.4539 381.066 70.9901 381.066 74.8958C381.066 78.9071 381.805 82.5489 383.283 85.8212C384.761 89.0935 386.925 91.6797 389.775 93.5798C392.625 95.3743 395.95 96.2716 399.75 96.2716Z" fill="white"></path>
<path d="M317.172 115.595V34.3672H341.873V115.595H317.172Z" fill="white"></path>
<path d="M284.775 115.587V0H295.859V115.587H284.775Z" fill="white"></path>
<path d="M216.46 117.641C208.332 117.641 201.365 115.741 195.559 111.941C189.754 108.141 185.32 103.074 182.259 96.7403C179.198 90.3012 177.667 83.1232 177.667 75.2062C177.667 67.1837 179.356 60.0057 182.734 53.6721C186.112 47.233 190.915 42.1661 197.143 38.4716C203.476 34.777 210.971 32.9297 219.627 32.9297C227.966 32.9297 235.144 34.777 241.161 38.4716C247.283 42.1661 251.981 47.1274 255.253 53.3554C258.631 59.5834 260.32 66.6031 260.32 74.4145V115.583H249.395V97.532H248.92C247.442 100.699 245.225 103.866 242.269 107.032C239.314 110.094 235.672 112.627 231.344 114.633C227.122 116.638 222.16 117.641 216.46 117.641ZM218.835 108.141C224.746 108.141 229.972 106.716 234.511 103.866C239.05 100.91 242.586 96.9514 245.119 91.9901C247.758 86.9233 249.078 81.2231 249.078 74.8895C249.078 68.6615 247.864 63.1197 245.436 58.2639C243.008 53.4082 239.578 49.5553 235.144 46.7052C230.711 43.8551 225.433 42.43 219.31 42.43C212.977 42.43 207.54 43.9079 203.001 46.8635C198.462 49.7136 194.979 53.6721 192.551 58.7389C190.123 63.7002 188.909 69.3477 188.909 75.6812C188.909 81.5925 190.07 87.0288 192.393 91.9901C194.715 96.9514 198.093 100.91 202.526 103.866C207.065 106.716 212.502 108.141 218.835 108.141Z" fill="white"></path>
<path d="M127.071 117.483C123.904 117.483 121.107 116.586 118.679 114.791C116.357 112.891 114.457 110.147 112.979 106.558L85.2695 34.9883H97.62L123.113 102.757C123.746 104.13 124.379 105.132 125.013 105.766C125.646 106.399 126.385 106.716 127.229 106.716C127.968 106.716 128.602 106.399 129.129 105.766C129.763 105.132 130.343 104.13 130.871 102.757L156.68 34.9883H168.873L140.847 106.716C139.474 110.305 137.574 112.997 135.146 114.791C132.824 116.586 130.132 117.483 127.071 117.483Z" fill="white"></path>
<path d="M45.285 115.583C36.6291 115.583 28.8705 113.999 22.0091 110.832C15.2533 107.56 9.8698 102.916 5.85855 96.8987C1.95285 90.8818 0 83.651 0 75.2062C0 67.3948 1.58339 60.3223 4.75017 53.9888C7.91695 47.5497 12.3504 42.43 18.0507 38.6299C23.8564 34.8298 30.6122 32.9297 38.3181 32.9297C46.235 32.9297 52.938 34.6714 58.4271 38.1549C63.9162 41.6383 68.0858 46.3357 70.9359 52.2471C73.786 58.1584 75.2111 64.8086 75.2111 72.1978C75.2111 73.2534 75.1583 74.4145 75.0527 75.6812C74.9472 76.9479 74.7888 78.0563 74.5777 79.0063H11.7171C12.0338 84.9177 13.7227 89.879 16.7839 93.8902C19.8452 97.9015 23.8036 100.91 28.6594 102.916C33.6207 104.921 38.9514 105.924 44.6516 105.924H65.0774V115.583H45.285ZM11.7171 71.0894H63.969C63.969 68.9782 63.7579 66.6559 63.3356 64.1225C62.9134 61.4835 62.1217 58.8973 60.9605 56.3639C59.9049 53.8304 58.3743 51.5081 56.3687 49.397C54.4686 47.2858 51.988 45.5968 48.9268 44.3301C45.9711 42.9578 42.3293 42.2717 38.0014 42.2717C33.9901 42.2717 30.3483 43.1162 27.076 44.8051C23.8036 46.4941 21.0591 48.7636 18.8423 51.6137C16.6256 54.3582 14.8839 57.4195 13.6172 60.7974C12.456 64.1753 11.8226 67.6059 11.7171 71.0894Z" fill="white"></path>
</svg>