<svg width="110" height="107" viewBox="0 0 110 107" fill="none" xmlns="http://www.w3.org/2000/svg">
<path fill-rule="evenodd" clip-rule="evenodd" d="M72.0599 106.134C71.8715 106.103 71.6828 106.072 71.4939 106.04C68.6659 105.571 65.7765 105.091 62.969 104.53C59.1202 103.888 55.2714 103.22 51.4226 102.552L51.4181 102.551C47.5708 101.883 43.7234 101.215 39.8761 100.574C34.158 99.5431 28.3577 98.5941 22.6194 97.6553C21.813 97.5234 21.0079 97.3917 20.2043 97.2599C19.1352 97.0461 18.4937 96.5116 18.173 95.4424L18.1718 95.4392C12.1852 78.762 6.19849 62.0849 0.211816 45.3008C-0.322743 43.6971 0.211816 42.7349 1.17402 41.6658C5.45049 36.5341 9.72695 31.3756 14.0034 26.2171C18.2799 21.0586 22.5564 15.9001 26.8329 10.7683C29.1253 7.92562 31.4965 5.08293 33.8114 2.30771L33.8168 2.30112L33.8206 2.29663C34.2015 1.83996 34.5809 1.38512 34.9582 0.932416C35.5996 0.0771219 36.348 -0.136702 37.4171 0.0771218C46.1306 1.89466 54.8708 3.71219 63.611 5.52973C72.3509 7.3472 81.0908 9.16466 89.8039 10.9821C90.873 11.1959 91.4076 11.7305 91.8352 12.7996C94.8288 20.8716 97.8224 28.9702 100.816 37.0689C103.809 45.1674 106.803 53.2658 109.796 61.3376C110.117 62.2998 110.117 63.1551 109.369 64.0104C98.143 77.5882 86.9173 91.166 75.6915 104.851C75.5702 104.957 75.451 105.067 75.3318 105.178L75.3315 105.178L75.3312 105.178L75.3309 105.179L75.3305 105.179L75.3302 105.179L75.3299 105.18L75.3294 105.18C74.6093 105.848 73.8893 106.515 72.698 106.241C72.4858 106.205 72.273 106.17 72.0599 106.134ZM67.6712 50.0728L67.6732 50.0586C68.7423 42.254 69.8114 34.4494 70.8805 26.5914C55.6991 32.5785 40.7314 38.4586 25.6568 44.3388C34.3517 50.8956 42.9516 57.3574 51.5515 63.8191C55.8523 67.0507 60.1531 70.2823 64.4658 73.5257C65.5343 65.6724 66.6028 57.8726 67.6712 50.0728ZM39.4933 59.4631L39.4976 59.4664L39.5019 59.4696C47.3675 65.3816 55.2025 71.2706 63.0759 77.1597C49.2843 82.3984 35.8134 87.4232 22.0218 92.555C22.2506 86.1024 22.4794 79.7085 22.7083 73.3147L22.709 73.293L22.7091 73.2901C23.0146 64.755 23.32 56.2199 23.6255 47.5451C28.9422 51.5327 34.2246 55.5031 39.4933 59.4631ZM68.1008 75.3426C76.3685 72.2066 84.5411 69.1656 92.7137 66.1247C96.8003 64.6041 100.887 63.0835 104.985 61.551C99.9065 55.9375 94.8544 50.3507 89.8022 44.7639L89.7747 44.7335L89.7596 44.7169C84.7228 39.147 79.6859 33.5772 74.6225 27.9807C72.3773 43.9105 70.2391 59.5197 68.1008 75.3426ZM47.0933 32.0966L47.0902 32.0978L47.0854 32.0997L47.0778 32.1027L47.0776 32.1028C39.7593 34.9874 32.4409 37.872 25.0157 40.81C29.1853 28.5152 33.3549 16.5411 37.6313 4.46003C41.9928 7.08583 46.3543 9.6931 50.7235 12.305L50.7237 12.3051C56.8503 15.9675 62.9921 19.6391 69.1703 23.3834C61.74 26.3235 54.4166 29.21 47.0933 32.0966ZM27.8014 94.371L27.8002 94.3715L27.7955 94.3732V94.694C42.0148 97.1529 56.2341 99.6119 70.6672 102.071C69.3135 97.2262 67.9599 92.4766 66.6062 87.7269L66.6051 87.7231L66.6048 87.7219L66.6045 87.7207L66.6036 87.7176C65.9268 85.3429 65.25 82.9682 64.5732 80.5816C52.1734 85.1781 39.9874 89.7746 27.8014 94.371ZM69.5173 84.577C69.0094 82.8196 68.5016 81.0622 67.9938 79.2982C75.091 76.62 82.1464 73.9837 89.1598 71.3631L89.1611 71.3626L89.1714 71.3587C93.3528 69.7963 97.5194 68.2394 101.671 66.6826L101.885 66.8964C98.0984 71.4753 94.312 76.0723 90.5107 80.6875L90.5057 80.6936L90.5031 80.6967C85.0763 87.2854 79.619 93.911 74.0877 100.574C72.5643 95.1214 71.0409 89.8497 69.5175 84.5779L69.5173 84.577ZM4.48774 45.9417C7.96046 55.5706 11.3749 65.1995 14.7741 74.7854L14.7742 74.7858L14.7744 74.7862L14.7745 74.7866C15.9797 78.1853 17.183 81.5786 18.3863 84.9645C18.4932 84.9645 18.6001 84.9645 18.6001 84.8576C18.8139 78.3894 19.0545 71.8945 19.295 65.3996C19.5356 58.9047 19.7761 52.4099 19.99 45.9417H4.48774ZM102.525 53.4249C93.7586 43.6963 84.9922 33.9678 76.012 24.1323C80.3954 21.2457 84.5649 18.466 88.7345 15.6863C90.0118 19.1117 91.2891 22.5293 92.5642 25.9411L92.5696 25.9556L92.5719 25.9617L92.5732 25.9651L92.5788 25.9802C95.995 35.1207 99.3958 44.22 102.74 53.3193C102.686 53.3193 102.66 53.346 102.633 53.3727C102.606 53.3994 102.58 53.4262 102.526 53.4262L102.525 53.4249ZM31.2161 11.5171C31.1626 11.5171 31.1359 11.4904 31.1092 11.4636C31.0824 11.4369 31.0557 11.4102 31.0022 11.4102C25.9631 17.5476 20.8849 23.685 15.7677 29.8696L15.7673 29.8701L15.767 29.8704C12.4161 33.9203 9.04851 37.9903 5.66415 42.0939C6.09036 42.0939 6.37786 42.1285 6.6254 42.1584H6.62543C6.81254 42.181 6.97682 42.2008 7.16092 42.2008H19.242C20.2042 42.2008 20.6318 41.9869 20.9525 41.0247C22.9839 35.0377 25.0152 29.1575 27.0465 23.2774C28.5433 19.2147 29.9331 15.3659 31.2161 11.5171ZM47.6906 6.05474C47.6558 5.99831 47.6149 5.93223 47.5741 5.85056C60.0828 8.52336 72.3776 11.0892 84.9932 13.5482L84.537 13.8565C80.757 16.4107 77.2582 18.7748 73.6606 21.1389C73.4468 21.3528 72.9122 21.3528 72.5915 21.1389C70.3542 19.8024 68.1091 18.4659 65.8604 17.1272C59.8346 13.5401 53.7829 9.93749 47.7879 6.27821C47.7879 6.21214 47.7471 6.14606 47.6906 6.05474Z" fill="white"></path>
</svg>