<svg width="610" height="110" viewBox="0 0 610 110" fill="none" xmlns="http://www.w3.org/2000/svg">
<g clip-path="url(#clip0_445_1229)">
<path fill-rule="evenodd" clip-rule="evenodd" d="M0 23.5731H13.8621V108.037H0V23.5731ZM85.1544 108.037H71.2922V43.6827C71.2922 42.6438 71.0875 41.6009 70.8787 40.5579C70.674 39.3112 70.0477 38.2683 69.016 37.2253C67.9802 36.1864 66.7397 35.3512 64.877 34.5201C63.0142 33.8968 60.7421 33.4772 57.8436 33.4772C54.7403 33.4772 52.2553 33.8968 50.3926 34.5201C48.5339 35.1434 47.0846 35.9786 46.053 37.0175C45.0131 38.0605 44.3949 39.1034 43.9814 40.1423C43.5679 41.1853 43.5679 42.432 43.5679 43.2671V108.037H29.7058V41.1853C29.7058 39.9346 29.9105 38.0605 30.324 35.9786C30.7375 33.8968 31.982 31.6031 33.8448 29.5212C35.7034 27.4394 38.6019 25.5653 42.1146 23.899C45.8401 22.2286 50.806 21.6094 57.426 21.6094C63.8412 21.6094 69.0119 22.4405 72.7374 23.899C76.4629 25.5653 79.1526 27.4394 81.0154 29.5212C82.8781 31.6031 83.9098 33.8968 84.3274 36.1864C84.7368 38.476 84.9456 40.1423 84.9456 41.3931V43.0594L85.1544 108.037Z" fill="white"></path>
<path d="M202.31 21.6094C208.697 21.6094 213.851 22.4446 217.56 23.9112C221.265 25.5857 223.947 27.472 225.802 29.566C227.652 31.6601 228.684 33.966 229.097 36.272C229.507 38.5738 229.711 40.2483 229.711 41.5072V49.4679C229.711 51.3501 229.302 53.4442 228.688 55.7501C228.066 58.052 226.42 60.5657 223.738 63.0834C222.502 64.3383 221.265 65.3853 219.62 66.0168C218.179 66.6401 216.733 67.0597 215.497 67.4834C214.056 67.899 212.615 68.1068 211.17 68.1068H198.806C195.924 68.1068 193.451 69.1538 191.396 71.252C189.333 73.346 188.096 75.8557 188.096 79.0009V86.3342C188.096 89.0557 188.506 90.9379 189.537 92.6164C189.947 93.4516 190.364 94.0831 190.982 94.4986C191.597 95.1301 192.423 95.5457 193.451 95.9653C194.278 96.3849 195.514 96.8046 196.751 97.2242C198.192 97.6438 199.842 97.6438 201.901 97.6438C204.783 97.6438 206.847 97.432 208.492 96.8046C210.142 96.1772 211.17 95.7575 211.788 95.3379C213.233 94.2909 214.056 93.036 214.674 91.3575C215.288 89.8908 215.497 88.2164 215.497 86.542H229.302V90.5223C229.302 93.4557 228.688 96.1772 227.447 98.6909C226.211 101.205 224.356 103.506 221.679 105.181C219.824 106.44 217.352 107.695 214.056 108.534C210.76 109.581 206.638 110 201.692 110C197.987 110 194.896 109.793 192.215 109.161C189.537 108.534 187.065 107.906 185.214 106.859C183.151 106.02 181.505 104.765 180.269 103.718C179.032 102.459 178 101.412 176.969 100.158C175.114 97.2242 174.087 94.0831 174.291 90.3105V41.5072C174.291 40.2483 174.496 38.366 174.91 36.272C175.319 34.1738 176.559 31.872 178.205 29.7779C180.06 27.6838 182.737 25.7975 186.446 24.1231C190.774 22.4446 195.719 21.6094 202.31 21.6094ZM215.911 45.6953V44.2286C215.911 43.1816 215.706 42.1346 215.501 41.0875C215.292 39.8327 214.674 38.7816 213.643 37.7346C212.615 36.6875 211.379 35.8523 209.524 35.0131C207.669 34.3857 205.401 33.966 202.519 33.966C199.428 33.966 196.956 34.3857 195.101 35.0131C193.246 35.6405 191.805 36.4797 190.774 37.5268C189.746 38.5738 189.128 39.6209 188.714 40.6679C188.305 41.7149 188.305 42.762 188.305 43.6012V60.9853C188.51 59.9383 188.919 59.3109 189.746 58.6834C190.565 58.052 191.392 57.6364 192.423 57.2168C193.451 56.7971 194.278 56.5894 195.306 56.5894C196.337 56.3775 196.956 56.3775 197.574 56.3775H206.847C209.319 56.3775 211.379 55.5423 213.233 53.656C215.088 51.7697 215.911 49.6757 215.911 47.162V45.6953Z" fill="white"></path>
<path fill-rule="evenodd" clip-rule="evenodd" d="M299.023 108.036H285.165V43.6822C285.165 42.6433 284.96 41.6004 284.751 40.5574C284.546 39.3107 283.92 38.2678 282.888 37.2248C281.853 36.1859 280.612 35.3507 278.753 34.5196C276.887 33.8963 274.61 33.4767 271.712 33.4767C268.613 33.4767 266.128 33.8963 264.265 34.5196C262.406 35.143 260.957 35.9782 259.925 37.017C258.885 38.06 258.267 39.103 257.854 40.1419C257.44 41.1848 257.44 42.2237 257.44 43.0589V107.829H243.578V41.1848C243.578 39.9341 243.783 38.06 244.196 35.9782C244.61 33.8963 245.854 31.6026 247.717 29.5207C249.576 27.4389 252.474 25.5648 255.991 23.8985C259.717 22.2281 264.682 21.6089 271.302 21.6089C277.714 21.6089 282.888 22.44 286.614 23.8985C290.339 25.5648 293.025 27.4389 294.888 29.5207C296.75 31.6026 297.782 33.8963 298.2 36.1859C298.609 38.4756 298.818 40.1419 298.818 41.3926V43.0589L299.023 108.036ZM354.475 95.8019V108.036C348.134 108.036 343.024 107.205 339.34 105.755C335.659 104.097 333.002 102.231 331.164 100.157C329.322 98.0793 328.094 95.7978 327.684 93.5204C327.275 91.2389 327.07 89.5807 327.07 88.3382V33.1793H316.848V21.5681H327.074V0H340.773V21.5641H354.475V33.1752H340.773V85.4333C340.773 86.4681 340.977 87.507 341.182 88.5419C341.387 89.5807 342.001 90.8233 343.024 91.8622C344.048 92.897 345.272 93.9359 347.114 94.5552C348.957 95.1785 351.204 95.5941 354.066 95.5941H354.475V95.8019ZM421.8 87.5111V90.4241C421.8 91.6748 421.596 93.5489 421.182 95.6307C420.765 97.7126 419.52 100.002 417.649 102.084C415.782 104.17 413.08 106.252 409.343 107.706C405.605 109.377 400.622 110 393.978 110C387.538 110 382.347 109.169 378.609 107.71C374.871 106.04 372.169 104.166 370.298 102.088C368.432 100.002 367.392 97.7126 366.982 95.423C366.565 93.1293 366.356 91.463 366.356 90.2163V23.5726H380.063V86.2563H380.267V87.9267C380.267 88.7578 380.476 89.8007 380.685 91.0474C380.89 92.2982 381.516 93.337 382.556 94.38C383.387 95.423 384.84 96.2541 386.707 97.0893C388.578 97.7126 390.862 98.1282 393.978 98.1282C397.089 98.1282 399.587 97.7126 401.453 97.0893C403.32 96.4619 404.774 95.6307 405.605 94.5878C406.645 93.5489 407.267 92.5059 407.476 91.463C407.889 90.4241 407.889 89.1733 407.889 88.3422V86.4682H408.098V23.5726H421.805V87.507L421.8 87.5111ZM465.974 21.6089H470.834C472.312 21.6089 473.581 21.6089 475.272 21.8126L472.103 33.717H465.549C462.589 33.717 460.267 34.1326 458.364 34.76C456.46 35.5952 455.191 36.4304 454.135 37.4733C453.078 38.5163 452.444 39.5593 452.231 40.8141C452.022 41.857 451.809 43.1119 451.809 43.943V108.036H437.644V41.4415C437.644 40.1867 437.857 38.5163 438.283 36.2226C438.704 33.9248 439.974 31.8348 441.664 29.5411C443.564 27.4511 446.315 25.573 450.118 23.9026C454.135 22.4441 459.211 21.6089 465.974 21.6089Z" fill="white"></path>
<path d="M511.242 21.6094C517.629 21.6094 522.779 22.4446 526.488 23.9112C530.197 25.5857 532.875 27.472 534.729 29.566C536.584 31.6601 537.611 33.966 538.025 36.272C538.434 38.5738 538.643 40.2483 538.643 41.5072V49.4679C538.643 51.3501 538.234 53.4442 537.611 55.7501C536.997 58.052 535.347 60.5657 532.67 63.0834C531.434 64.3383 530.197 65.3853 528.547 66.0168C527.106 66.6401 525.665 67.0597 524.429 67.4834C522.984 67.899 521.543 68.1068 520.102 68.1068H507.738C504.856 68.1068 502.383 69.1538 500.319 71.252C498.26 73.346 497.024 75.8557 497.024 79.0009V86.3342C497.024 89.0557 497.433 90.9379 498.469 92.6164C498.878 93.4516 499.288 94.0831 499.91 94.4986C500.524 95.1301 501.351 95.5457 502.383 95.9653C503.206 96.3849 504.442 96.8046 505.678 97.2242C507.12 97.6438 508.769 97.6438 510.829 97.6438C513.715 97.6438 515.774 97.432 517.42 96.8046C519.07 96.1772 520.102 95.7575 520.72 95.3379C522.161 94.2909 523.192 93.036 523.602 91.3575C524.22 89.8908 524.429 88.2164 524.429 86.542H538.23V90.5223C538.23 93.4557 537.615 96.1772 536.375 98.6909C535.139 101.205 533.288 103.506 530.607 105.181C528.752 106.44 526.279 107.695 522.984 108.534C519.688 109.581 515.569 110 510.62 110C506.915 110 503.824 109.793 501.146 109.161C498.469 108.534 495.996 107.906 494.142 106.859C492.078 106.02 490.433 104.765 489.196 103.718C487.96 102.459 486.723 101.412 485.901 100.158C484.046 97.2242 483.014 94.0831 483.219 90.3105V41.5072C483.219 40.2483 483.424 38.366 483.837 36.272C484.251 34.1738 485.487 31.872 487.342 29.7779C489.196 27.6838 491.874 25.7975 495.583 24.1231C499.701 22.4446 504.856 21.6094 511.242 21.6094ZM525.047 45.6953V44.2286C525.047 43.1816 524.842 42.1346 524.634 41.0875C524.429 39.8327 523.811 38.7816 522.779 37.7346C521.747 36.6875 520.511 35.8523 518.656 35.0131C516.806 34.3857 514.538 33.966 511.656 33.966C508.561 33.966 506.088 34.3857 504.237 35.0131C502.383 35.6405 500.938 36.4797 499.91 37.5268C498.878 38.5738 498.26 39.6209 497.851 40.6679C497.437 41.7149 497.437 42.762 497.437 43.6012V60.9853C497.642 59.9383 498.051 59.3109 498.878 58.6834C499.701 58.052 500.528 57.6364 501.556 57.2168C502.588 56.7971 503.41 56.5894 504.442 56.5894C505.474 56.3775 506.092 56.3775 506.71 56.3775H515.979C518.452 56.3775 520.72 55.5423 522.365 53.656C524.22 51.7697 525.047 49.6757 525.047 47.162V45.6953Z" fill="white"></path>
<path fill-rule="evenodd" clip-rule="evenodd" d="M591.462 37.209C589.607 34.952 585.894 33.9253 580.539 33.9253C577.858 33.9253 575.59 34.129 573.735 34.7483C571.88 35.3594 570.435 36.1823 569.408 37.0053C568.376 38.032 567.553 39.0586 567.14 40.0853C566.73 41.112 566.521 42.3423 566.521 43.369V46.449C566.521 47.6794 566.726 48.9097 567.344 49.7327C567.754 50.7594 568.376 51.5823 568.994 52.4012C569.612 53.2242 570.231 53.6316 571.053 54.0431C571.676 54.4546 572.294 54.6583 572.703 54.866C573.117 55.0697 574.148 55.2734 576.003 55.8927C577.653 56.5038 579.712 57.3268 581.98 58.1497C584.248 58.9727 586.721 59.7916 589.194 60.6146C591.667 61.4334 593.935 62.2564 595.789 62.8716C599.707 64.3097 602.593 66.5668 604.861 69.8505C606.921 73.1383 607.952 76.8334 607.952 80.936V88.5342C607.952 90.3797 607.543 92.6408 606.921 94.8979C606.307 97.1549 604.861 99.412 602.798 101.262C600.739 103.107 598.057 104.753 594.348 106.191C590.844 107.422 586.103 108.037 580.33 108.037C574.558 108.037 570.026 107.422 566.313 106.187C562.808 104.957 559.926 103.315 557.863 101.262C555.803 99.412 554.358 97.1549 553.74 94.8979C553.126 92.6408 552.708 90.3797 552.708 88.5342V83.8083H566.313C566.313 87.7112 567.344 90.5875 569.199 92.8446C571.053 94.8979 574.767 95.9246 580.126 95.9246C585.485 95.9246 588.989 94.8979 591.048 93.0483C592.903 90.9949 593.935 88.1227 593.935 84.016C593.935 81.9627 593.525 80.3209 592.903 78.8827C592.084 77.4486 591.257 76.422 590.225 75.599C588.989 74.5723 587.753 73.9572 586.308 73.342C583.012 72.1116 580.126 71.0849 577.239 70.0583C574.767 69.2353 572.294 68.4164 570.026 67.5934C567.758 66.7705 566.108 66.1553 564.872 65.9516C563.84 65.5442 562.604 64.9249 561.162 64.102C559.717 63.2831 558.481 62.0486 557.04 60.8183C555.803 59.3801 554.772 57.7383 553.74 55.6849C552.917 53.6316 552.504 51.3746 552.504 48.9097V41.112C552.504 35.5712 554.772 30.8453 559.099 27.1501C563.431 23.4549 570.439 21.6094 579.917 21.6094C584.866 21.6094 588.989 22.0168 592.285 23.0434C595.789 24.0701 598.675 25.5083 600.943 27.1501C603.212 28.9997 604.861 31.0531 605.893 33.3101C606.921 35.7709 607.334 38.2397 607.334 40.9042V44.8072H593.525C594.344 42.1386 593.321 39.4701 591.462 37.209ZM102.975 21.6094H116.681V76.096C116.681 76.096 115.85 80.4797 121.459 84.0323C121.459 84.0323 145.548 103.03 144.303 88.416V21.8172H158.427V99.4812C158.427 99.4812 157.383 114.095 138.281 108.876L108.997 93.2153C108.997 93.2153 101.935 89.2512 103.183 77.7664L102.975 21.6094Z" fill="white"></path>
</g>
<defs>
<clipPath id="clip0_445_1229">
<rect width="610" height="110" fill="white"></rect>
</clipPath>
</defs>
</svg>